Coordinates
version=1
nRows=6
nColumns=46
inDegrees=yes

Units are S.I. units (second, meters, Newtons, ...)
Angles are in degrees.

endheader
time	pelvis_tilt	pelvis_list	pelvis_rotation	pelvis_tx	pelvis_ty	pelvis_tz	bb_angle	bb_tx	bb_ty	bb_tz	hip_flexion_r	hip_adduction_r	hip_rotation_r	knee_angle_r	knee_angle_r_beta	ankle_angle_r	subtalar_angle_r	mtp_angle_r	crank_angle_r	hip_flexion_l	hip_adduction_l	hip_rotation_l	knee_angle_l	knee_angle_l_beta	ankle_angle_l	subtalar_angle_l	mtp_angle_l	crank_angle_l	lumbar_extension	lumbar_bending	lumbar_rotation	arm_flex_r	arm_add_r	arm_rot_r	elbow_flex_r	pro_sup_r	wrist_flex_r	wrist_dev_r	arm_flex_l	arm_add_l	arm_rot_l	elbow_flex_l	pro_sup_l	wrist_flex_l	wrist_dev_l
      5.00000000	    -33.65795618	      2.60179371	     14.90931322	      0.42065830	      1.15976820	     -0.26710487	      0.00000000	      0.50000000	      0.00000000	      0.25000000	     30.64450218	    -14.40607240	    -15.45590889	     18.39001257	      0.32096627	    -16.47802393	     20.04835395	      0.00000000	      0.00000000	     87.79615315	      1.39272092	      2.12327886	    105.70977153	      1.84498356	     -7.46965870	     -0.49300335	      0.00000000	      0.00000000	    -60.86682853	      4.36637444	    -20.75400221	     37.75363139	     -9.95483457	     22.31718329	     99.61077359	     48.73225066	      0.00000000	      0.00000000	     25.77991526	    -54.32729704	     12.15126841	    115.31817200	     54.97167236	      0.00000000	      0.00000000
      5.00500000	    -33.98570175	      2.23997881	     15.06691341	      0.42064646	      1.16071946	     -0.26631452	      0.00000000	      0.50000000	      0.00000000	      0.25000000	     30.39056830	    -14.15103805	    -15.98403805	     18.30015220	      0.31939791	    -17.03075333	     20.40407064	      0.00000000	      0.00000000	     88.88710056	      1.45717911	      2.24625865	    105.25391948	      1.83702745	     -7.69143020	     -0.41219883	      0.00000000	      0.00000000	    -60.73129437	      4.43983319	    -20.83408757	     37.86261707	     -9.67949943	     22.30719349	     99.51276302	     48.71673063	      0.00000000	      0.00000000	     25.91951390	    -54.61341316	     11.93659504	    115.54244740	     54.97526475	      0.00000000	      0.00000000
      5.01000000	    -34.33879427	      1.72931305	     15.31359309	      0.42042774	      1.16180387	     -0.26583811	      0.00000000	      0.50000000	      0.00000000	      0.25000000	     30.32334855	    -13.82732124	    -16.56615213	     18.51579996	      0.32316167	    -17.41821795	     20.45534284	      0.00000000	      0.00000000	     89.90768565	      1.65011416	      2.51546257	    104.62965488	      1.82613197	     -7.67814795	     -0.32782585	      0.00000000	      0.00000000	    -60.54241695	      4.72684157	    -20.92096759	     38.07065140	     -9.27017104	     22.32481970	     99.27704710	     48.68023955	      0.00000000	      0.00000000	     25.80200235	    -54.91209029	     11.86466366	    115.90331338	     55.02335493	      0.00000000	      0.00000000
      5.01500000	    -34.70003495	      1.25292503	     15.47725386	      0.42008177	      1.16322273	     -0.26535304	      0.00000000	      0.50000000	      0.00000000	      0.25000000	     30.45862594	    -13.50405529	    -16.87385730	     19.03349610	      0.33219718	    -17.83609797	     20.30649011	      0.00000000	      0.00000000	     90.74125538	      1.81933208	      2.77400691	    103.80445164	      1.81172946	     -7.57756325	     -0.15245637	      0.00000000	      0.00000000	    -60.39480990	      4.88078036	    -20.88988558	     38.27994570	     -9.03237188	     22.26273301	     98.97886469	     48.62542799	      0.00000000	      0.00000000	     25.74163018	    -55.28167095	     11.49861361	    116.26515015	     55.03663257	      0.00000000	      0.00000000
      5.02000000	    -35.10122777	      0.77330913	     15.63688562	      0.41959908	      1.16468907	     -0.26520703	      0.00000000	      0.50000000	      0.00000000	      0.25000000	     30.85582652	    -13.22895342	    -17.04380370	     19.93731745	      0.34797183	    -17.86869024	     19.69599067	      0.00000000	      0.00000000	     91.39353087	      2.04087937	      3.03876290	    102.82480698	      1.79463143	     -7.05587930	     -0.00311600	      0.00000000	      0.00000000	    -60.22202502	      5.12502918	    -20.95384663	     38.62405235	     -8.69211927	     22.23326801	     98.68359701	     48.57316586	      0.00000000	      0.00000000	     25.56445395	    -55.49433882	     11.14802532	    116.63889277	     55.05616484	      0.00000000	      0.00000000
      5.02500000	    -35.73255960	      0.24981325	     15.58934714	      0.41889271	      1.16588404	     -0.26494269	      0.00000000	      0.50000000	      0.00000000	      0.25000000	     31.77537990	    -12.83868973	    -16.68702560	     21.19057272	      0.36984526	    -17.76301015	     18.56538111	      0.00000000	      0.00000000	     92.09593348	      2.14696353	      3.39001309	    101.68480392	      1.77473463	     -6.25857630	      0.60232479	      0.00000000	      0.00000000	    -59.80858669	      5.55563398	    -24.84501248	     41.29337787	     -5.30573825	     25.58081544	     94.52549849	     48.42785293	      0.00000000	      0.00000000	     12.98406704	    -57.20707124	     -2.07086840	    120.56393484	     54.32740011	      0.00000000	      0.00000000
